<svg width="60" height="60" viewBox="0 0 60 60" fill="none" xmlns="http://www.w3.org/2000/svg">
<path d="M29.6953 56.0766C15.5887 56.0766 4.15311 44.6409 4.15311 30.5344C4.15311 16.4278 15.5887 4.99219 29.6953 4.99219C43.8019 4.99219 55.2375 16.4278 55.2375 30.5344C55.2375 44.6409 43.8019 56.0766 29.6953 56.0766Z" fill="#A0C4FF"/>
<path d="M29.6953 47.0953C20.5489 47.0953 13.1343 39.6807 13.1343 30.5344C13.1343 21.388 20.5489 13.9734 29.6953 13.9734C38.8416 13.9734 46.2562 21.388 46.2562 30.5344C46.2562 39.6807 38.8416 47.0953 29.6953 47.0953Z" fill="#FFD6A5"/>
<path d="M29.6953 48.0891C39.3797 48.0891 47.2547 40.2141 47.2547 30.5297C47.2547 20.8453 39.3797 12.9703 29.6953 12.9703C20.0156 12.9703 12.136 20.85 12.136 30.5297C12.136 40.2141 20.0156 48.0891 29.6953 48.0891ZM29.6953 14.9719C38.2734 14.9719 45.2531 21.9516 45.2531 30.5297C45.2531 39.1078 38.2734 46.0875 29.6953 46.0875C21.1172 46.0875 14.1375 39.1078 14.1375 30.5297C14.1375 21.9516 21.1125 14.9719 29.6953 14.9719Z" fill="white"/>
<path d="M29.6953 38.3438C25.3823 38.3438 21.886 34.8474 21.886 30.5344C21.886 26.2214 25.3823 22.725 29.6953 22.725C34.0083 22.725 37.5047 26.2214 37.5047 30.5344C37.5047 34.8474 34.0083 38.3438 29.6953 38.3438Z" fill="white"/>
<path d="M2.7422 9.51562C3.52501 8.71875 4.5797 8.71875 4.93126 8.71875H5.06252L5.96251 8.73281C6.59533 8.74219 7.45782 8.92969 7.82814 8.30625C8.11876 7.81875 8.35314 7.72031 8.92033 7.58437C9.38908 7.47188 9.93752 7.40156 10.0641 6.84844C10.1344 6.54844 10.0922 6.23906 10.1297 5.92969C10.1813 5.50312 10.275 5.11406 10.275 4.66875C10.2703 4.22812 10.3078 3.81562 10.3453 3.38437C10.3594 3.19219 10.3594 2.97656 10.4813 2.8125C10.7438 2.47031 11.0156 2.36719 11.475 2.36719C11.6297 2.36719 11.7938 2.38594 11.9531 2.41406C13.0875 2.63437 13.7156 3.55313 14.0578 4.04531C14.0953 4.10156 14.1328 4.15781 14.1656 4.2L14.2078 4.26563C14.5547 4.69688 14.9484 5.18906 15.2953 5.74688C15.6281 6.29063 16.0453 6.825 16.4859 7.3875L16.5985 7.53281C16.9219 7.94531 17.1985 8.35781 17.461 8.75625C17.611 8.98125 17.7563 9.21094 17.9156 9.43125L18.0047 9.54844C18.2016 9.81094 18.4735 10.1719 18.6516 10.6406C18.9188 11.3531 18.9188 12.0562 18.886 12.5203C18.8625 12.8953 18.8063 13.2844 18.7172 13.7203C18.6516 14.0484 18.5672 14.3766 18.4875 14.7047C18.4172 14.9766 18.3469 15.2484 18.2906 15.525C18.1922 16.0359 18.0844 16.5422 17.9766 17.0531L17.9625 17.1234L17.9344 17.2547C17.9016 17.3953 17.8547 17.5266 17.7938 17.6531C18.8953 19.0359 20.0906 20.55 21.2672 22.0359C23.5781 24.9656 26.4094 28.4859 27.8906 30.3328C28.4531 31.0359 28.8188 31.4953 28.8938 31.5891C29.1094 31.8609 29.2406 32.1281 29.3016 32.4C29.3578 32.6766 29.2922 32.9531 29.1094 33.1781C28.9031 33.4359 28.561 33.5953 28.2281 33.5953C28.1063 33.5953 27.9891 33.5719 27.8813 33.5344C27.7828 33.5016 27.5063 33.3891 26.2219 31.9641C25.2703 30.9094 23.9531 29.3906 22.5375 27.7594C21.4547 26.5031 20.3109 25.1812 19.2281 23.9531C17.8688 22.4109 16.6453 21.0234 15.5297 19.7766L15.375 19.7812C14.8594 19.8 14.3438 19.8094 13.8235 19.8234C13.5516 19.8281 13.2703 19.8469 12.9891 19.8703C12.6516 19.8937 12.3094 19.9172 11.9719 19.9266C11.8828 19.9266 11.7891 19.9313 11.7 19.9313C11.3625 19.9313 11.0531 19.9125 10.7578 19.8797C10.2985 19.8281 9.60002 19.7062 8.94377 19.3172C8.5172 19.0594 8.20783 18.7313 7.98751 18.4922L7.88439 18.3844C7.69689 18.1922 7.50001 18.0094 7.30783 17.8219C6.96095 17.4891 6.60002 17.1469 6.24845 16.7531L6.13127 16.6219C5.65314 16.0828 5.20314 15.5766 4.72502 15.15C4.23283 14.7047 3.8297 14.2453 3.44064 13.8C3.38439 13.7297 3.33283 13.6875 3.28595 13.6359C2.85939 13.2141 2.0672 12.4359 2.05314 11.2781C2.03908 10.5937 2.28283 9.975 2.7422 9.51562Z" fill="white"/>
<path d="M16.6828 14.7984C16.7906 14.2922 16.8938 13.7953 16.9969 13.2938C17.1141 12.6844 17.2969 12.0938 17.4235 11.4844C17.4844 11.1797 17.536 10.875 17.5547 10.5609C17.5735 10.2141 17.5688 9.83907 17.4469 9.51094C17.3438 9.24844 17.1188 8.98594 16.9547 8.75157C16.5281 8.15157 16.1531 7.50938 15.6938 6.92344C15.1875 6.28594 14.6813 5.64844 14.2547 4.95469C13.9641 4.48594 13.6125 4.05469 13.2703 3.61876C13.0125 3.30001 12.675 2.62969 12.2391 2.54532C11.7469 2.45157 11.6156 3.05157 11.5594 3.41251C11.4703 3.96563 11.3766 4.51876 11.2828 5.07188C11.2453 5.31094 11.1844 5.55469 11.1281 5.79376C11.0531 6.14063 10.9594 6.48751 10.9406 6.84376C10.9266 7.10157 10.8516 7.36876 10.9594 7.61719C11.0391 7.81407 11.2125 7.96876 11.3438 8.13282C11.5453 8.39063 11.686 8.69063 11.8781 8.95782C12.0516 9.19219 12.2438 9.41719 12.3844 9.67032C12.5766 10.0031 12.675 10.2984 12.9422 10.5984C13.2328 10.9266 13.5188 11.2688 13.8235 11.5875C14.1047 11.8781 14.4844 12.1078 14.7328 12.4172C14.9297 12.6563 15.0235 12.9609 15.2203 13.2094C15.4922 13.5609 15.7735 13.9125 16.0406 14.2688C16.2141 14.4891 16.3969 14.8453 16.6406 14.9906C16.65 14.9297 16.6688 14.8641 16.6828 14.7984Z" fill="white"/>
<path d="M12.1359 2.54063C11.7234 2.54063 11.6109 3.08438 11.5594 3.41719C11.4703 3.97031 11.3765 4.52344 11.2828 5.07656C11.2453 5.31563 11.1844 5.55938 11.1281 5.79844C11.0531 6.14531 10.9593 6.49219 10.9406 6.84844C10.9265 7.10625 10.8515 7.37344 10.9594 7.62188C11.039 7.81875 11.2125 7.97344 11.3437 8.1375C11.5453 8.39531 11.6859 8.69531 11.8781 8.9625C12.0515 9.19688 12.2437 9.42188 12.3844 9.675C12.5765 10.0078 12.675 10.3031 12.9422 10.6031C13.2328 10.9313 13.5187 11.2734 13.8234 11.5922C14.1047 11.8828 14.4844 12.1125 14.7328 12.4219C14.9297 12.6609 15.0234 12.9656 15.2203 13.2141C15.4922 13.5656 15.7734 13.9172 16.0406 14.2734C16.214 14.4938 16.3969 14.85 16.6406 14.9953C16.6547 14.925 16.6687 14.8594 16.6828 14.7938C16.7906 14.2875 16.8937 13.7906 16.9969 13.2891C17.114 12.6797 17.2969 12.0891 17.4234 11.4797C17.4844 11.175 17.5359 10.8703 17.5547 10.5563C17.5734 10.2094 17.5687 9.83438 17.4469 9.50625C17.3437 9.24375 17.1187 8.98125 16.9547 8.74688C16.5281 8.14688 16.1531 7.50469 15.6937 6.91875C15.1875 6.28125 14.6812 5.64375 14.2547 4.95C13.964 4.48125 13.6125 4.05 13.2703 3.61406C13.0125 3.29531 12.675 2.625 12.239 2.54063C12.2015 2.54531 12.1687 2.54063 12.1359 2.54063ZM12.1359 0.539062C12.2953 0.539062 12.4594 0.553125 12.614 0.585938C13.7484 0.80625 14.3765 1.72031 14.714 2.20781C14.7515 2.26406 14.7937 2.32031 14.8265 2.36719L14.8781 2.43281C15.225 2.86406 15.614 3.35156 15.9562 3.90938C16.2984 4.4625 16.725 5.00625 17.175 5.58281L17.2594 5.69063C17.5828 6.10781 17.8594 6.51563 18.1172 6.91406C18.2719 7.14375 18.4219 7.36875 18.5812 7.59375L18.675 7.72031C18.8672 7.98281 19.1344 8.33906 19.3172 8.80781C19.589 9.52031 19.5797 10.2234 19.5515 10.6875C19.5281 11.0625 19.4719 11.4469 19.3828 11.8875C19.3125 12.2156 19.2328 12.5391 19.1531 12.8672C19.0828 13.1438 19.0125 13.4156 18.9562 13.6922C18.8531 14.2031 18.7547 14.7094 18.6422 15.225L18.6187 15.3281L18.6047 15.3984L18.0469 18.1922L15.6094 16.7156C15.0562 16.3828 14.7328 15.9 14.5359 15.6141C14.5125 15.5766 14.489 15.5391 14.4609 15.5063C14.25 15.2297 14.039 14.9625 13.8281 14.6906L13.6453 14.4563C13.4437 14.1984 13.3125 13.9547 13.2187 13.7813C13.2 13.7484 13.1859 13.7156 13.1672 13.6828C13.125 13.6453 13.0312 13.5656 12.9609 13.5094C12.7922 13.3734 12.5859 13.2047 12.3844 12.9891C12.1547 12.75 11.939 12.5016 11.7281 12.2531C11.6344 12.15 11.5453 12.0422 11.4515 11.9391C11.0953 11.5359 10.9031 11.1609 10.7625 10.8844C10.725 10.8188 10.6922 10.7484 10.6547 10.6781C10.6172 10.6078 10.5281 10.4953 10.4437 10.3875C10.3875 10.3078 10.3219 10.2281 10.2656 10.1484C10.1437 9.98438 10.0312 9.80156 9.92341 9.61875C9.87185 9.53906 9.82966 9.45469 9.76873 9.38438L9.71248 9.31875C9.55779 9.14062 9.29998 8.84531 9.12185 8.41875C8.83591 7.7625 8.90154 7.15781 8.93435 6.83438L8.94373 6.75C8.97185 6.28594 9.0656 5.88281 9.1406 5.55469L9.1781 5.37656L9.23435 5.13281C9.26248 5.01094 9.2906 4.88906 9.31404 4.76719L9.42654 4.07812L9.58123 3.11719C9.9656 0.721875 11.6344 0.539062 12.1359 0.539062Z" fill="#2F2F2F"/>
<path d="M15.9797 15.9469C15.464 15.9609 14.9484 15.975 14.4422 15.9844C13.8187 15.9984 13.2 16.0688 12.5859 16.0875C12.2719 16.0922 11.9625 16.0875 11.6578 16.05C11.3109 16.0078 10.9406 15.9375 10.6406 15.7547C10.3969 15.6094 10.1812 15.3422 9.97966 15.1406C9.46404 14.6109 8.90154 14.1281 8.40935 13.5703C7.8656 12.9656 7.33123 12.3516 6.72654 11.8078C6.31404 11.4375 5.94841 11.0203 5.58748 10.6031C5.32029 10.2984 4.72029 9.84375 4.7156 9.39844C4.70623 8.89688 5.32498 8.87813 5.6906 8.88281C6.2531 8.89219 6.81092 8.89688 7.37342 8.90625C7.61717 8.91094 7.8656 8.89219 8.10935 8.88281C8.4656 8.86875 8.82185 8.83594 9.17341 8.88281C9.43123 8.91563 9.70779 8.8875 9.93279 9.0375C10.1109 9.15469 10.2328 9.35156 10.3734 9.50625C10.5937 9.75 10.8656 9.94219 11.0906 10.1813C11.2922 10.3922 11.4797 10.6172 11.7047 10.8094C12 11.0578 12.2719 11.2078 12.5203 11.5219C12.7922 11.8688 13.0781 12.2063 13.3406 12.5625C13.575 12.8906 13.7344 13.3031 13.9969 13.6078C14.1984 13.8422 14.4797 13.9922 14.6906 14.2313C14.9859 14.5641 15.2859 14.8969 15.5859 15.2297C15.7734 15.4359 16.0922 15.6797 16.1859 15.9422C16.1156 15.9422 16.0453 15.9469 15.9797 15.9469Z" fill="white"/>
<path d="M8.75154 8.86407C8.53591 8.86407 8.32029 8.87813 8.10466 8.8875C7.88904 8.89688 7.66873 8.91563 7.45779 8.91563H7.36873C6.80623 8.90625 6.24841 8.90157 5.68591 8.89219H5.59216C5.22654 8.89219 4.70622 8.94844 4.7156 9.40782C4.72029 9.85313 5.32029 10.3078 5.58747 10.6125C5.9531 11.0297 6.31404 11.4469 6.72654 11.8172C7.33123 12.3609 7.8656 12.975 8.40935 13.5797C8.90154 14.1328 9.46404 14.6156 9.97966 15.15C10.1765 15.3516 10.3968 15.6188 10.6406 15.7641C10.9406 15.9469 11.3062 16.0172 11.6578 16.0594C11.9015 16.0875 12.1453 16.0969 12.3937 16.0969H12.5906C13.2047 16.0828 13.8234 16.0125 14.4469 15.9938C14.9531 15.9844 15.4687 15.9703 15.9844 15.9563C16.05 15.9563 16.1203 15.9516 16.1859 15.9469C16.0875 15.6844 15.7734 15.4406 15.5859 15.2344C15.2859 14.9063 14.9906 14.5688 14.6906 14.2359C14.4797 14.0016 14.1984 13.8516 13.9969 13.6125C13.7344 13.3125 13.575 12.8953 13.3406 12.5672C13.0781 12.2109 12.7922 11.8734 12.5203 11.5266C12.2719 11.2125 12 11.0625 11.7047 10.8141C11.4797 10.6266 11.2922 10.3969 11.0906 10.1859C10.8656 9.94688 10.5937 9.75469 10.3734 9.51094C10.2328 9.35157 10.1156 9.15938 9.93279 9.04219C9.70779 8.89219 9.43123 8.92032 9.17341 8.8875C9.03279 8.86875 8.89216 8.86407 8.75154 8.86407ZM8.75154 6.8625C8.99529 6.8625 9.21091 6.87657 9.42185 6.90469L9.50154 6.90938C9.82029 6.93282 10.4203 6.97032 11.025 7.37344C11.4187 7.63594 11.6578 7.93594 11.8031 8.11875L11.8547 8.18438C11.9109 8.24063 11.9765 8.30157 12.0515 8.3625C12.2156 8.50782 12.3797 8.65313 12.5344 8.81719C12.5906 8.87813 12.6656 8.95313 12.7312 9.03282C12.825 9.13125 12.9187 9.23907 12.9797 9.28594C13.0406 9.3375 13.1062 9.38438 13.1625 9.42657C13.4109 9.61407 13.7437 9.86719 14.0765 10.2891L14.2969 10.5656C14.5172 10.8375 14.7375 11.1094 14.9437 11.3906C15.1219 11.6344 15.2531 11.8688 15.3562 12.0563C15.3984 12.1313 15.4547 12.2344 15.4875 12.2906C15.5156 12.3141 15.5437 12.3375 15.5719 12.3563C15.7265 12.4828 15.9469 12.6563 16.1719 12.9L16.4672 13.2281C16.664 13.4438 16.8562 13.6641 17.0578 13.8797C17.0859 13.9125 17.114 13.9406 17.1515 13.9734C17.4 14.2172 17.8219 14.625 18.0515 15.2344L19.0453 17.8594L16.2422 17.9391L16.1672 17.9438L16.0312 17.9484L14.4844 17.9906C14.2125 17.9953 13.9312 18.0188 13.65 18.0375C13.3125 18.0609 12.975 18.0844 12.6375 18.0938H12.389C12.0328 18.0938 11.7187 18.0797 11.4234 18.0422C10.95 17.9859 10.2515 17.8641 9.59998 17.4703C9.18279 17.2172 8.8781 16.8938 8.65779 16.6547L8.55466 16.5422C8.35779 16.3453 8.1656 16.1578 7.96873 15.9703C7.62185 15.6422 7.2656 15.2953 6.91404 14.9016L6.77341 14.7469C6.30466 14.2172 5.85935 13.7203 5.3906 13.2984C4.88904 12.8484 4.47654 12.375 4.0781 11.9156C4.0406 11.8734 3.99373 11.8313 3.94217 11.7797C3.52029 11.3578 2.73279 10.5797 2.71404 9.42188C2.70466 8.75625 2.94841 8.1375 3.40779 7.67813C4.19529 6.88125 5.24529 6.88125 5.59216 6.88125H5.73279C6.04685 6.88594 6.3656 6.89532 6.67966 6.89532L7.41091 6.90469H7.46247C7.5656 6.90469 7.6781 6.9 7.78123 6.89063L8.02966 6.87657L8.18435 6.86719C8.37185 6.87188 8.56404 6.8625 8.75154 6.8625Z" fill="#2F2F2F"/>
<path d="M8.02029 6.68907C8.17966 6.41719 8.51247 6.05625 9.18279 5.8875C9.33278 5.85 9.48279 5.83125 9.6281 5.83125C10.4437 5.83125 10.95 6.41719 11.4047 6.94219C12.0375 7.67813 12.6375 8.45625 13.2234 9.20625C13.5187 9.58594 13.814 9.97032 14.114 10.3453C14.7797 11.1844 18.4406 15.8016 21.9281 20.2031C24.2437 23.1281 27.075 26.6531 28.5515 28.4953C29.114 29.1984 29.4843 29.6578 29.5593 29.7516C29.775 30.0234 29.9062 30.2906 29.9672 30.5625C30.0234 30.8391 29.9578 31.1156 29.7703 31.3406C29.564 31.5984 29.2265 31.7578 28.889 31.7578C28.7672 31.7578 28.65 31.7344 28.5422 31.6969C28.4484 31.6594 28.1672 31.5516 26.8781 30.1266C25.9265 29.0719 24.6093 27.5531 23.1984 25.9219C22.1109 24.6656 20.9718 23.3438 19.8843 22.1156C13.1859 14.5078 9.69373 10.5188 9.22498 9.91875L9.06091 9.71719C8.3531 8.84532 7.94997 8.31094 7.8656 7.9875C7.74841 7.5375 7.80466 7.06407 8.02029 6.68907Z" fill="#2F2F2F"/>
</svg>
