<svg width="92" height="131" viewBox="0 0 92 131" fill="none" xmlns="http://www.w3.org/2000/svg">
<rect x="1.5" y="8.5" width="89" height="121" rx="8.5" fill="#D9D9D9" stroke="black" stroke-width="3"/>
<path d="M27 7C27 4.79086 28.7909 3 31 3H62C64.2091 3 66 4.79086 66 7V15H27V7Z" fill="black"/>
<path d="M39 4C39 1.79086 40.7909 0 43 0H51C53.2091 0 55 1.79086 55 4V6H39V4Z" fill="black"/>
<line x1="30" y1="35.5" x2="77" y2="35.5" stroke="black"/>
<line x1="30" y1="38.5" x2="62" y2="38.5" stroke="black"/>
<line x1="30" y1="57.5" x2="77" y2="57.5" stroke="black"/>
<line x1="30" y1="60.5" x2="62" y2="60.5" stroke="black"/>
<line x1="30" y1="79.5" x2="77" y2="79.5" stroke="black"/>
<line x1="30" y1="82.5" x2="62" y2="82.5" stroke="black"/>
<line x1="30" y1="101.5" x2="77" y2="101.5" stroke="black"/>
<line x1="30" y1="104.5" x2="62" y2="104.5" stroke="black"/>
</svg>
