<svg width="96" height="75" viewBox="0 0 96 75" fill="none" xmlns="http://www.w3.org/2000/svg">
<path d="M80.4835 33.7325C78.5235 33.7325 76.644 33.897 74.9185 34.163L30.85 17.916C31.55 17.286 31.942 16.586 31.942 15.851C31.9335 15.4635 31.8276 15.0843 31.634 14.7485L61.069 6.91551C62.679 7.39501 64.6495 7.6855 66.83 7.6855C72.15 7.6855 76.455 5.9915 76.455 3.8985C76.455 1.7985 72.15 0.108002 66.83 0.108002C61.51 0.108002 57.205 1.8055 57.205 3.8985C57.2097 4.1435 57.2727 4.37917 57.394 4.6055L26.636 11.7C24.0579 10.969 21.3882 10.6118 18.7085 10.6395C11.404 10.6395 5.47852 12.974 5.47852 15.8545C5.47852 18.735 11.404 21.0695 18.7085 21.0695C20.7175 21.0695 22.5935 20.877 24.3015 20.562L66.2665 37.593C65.6015 38.265 65.1955 38.993 65.1955 39.7735C65.1955 40.4385 65.5315 41.0475 66.0215 41.639L22.4325 57.9525C21.8819 57.9315 21.3254 57.9198 20.763 57.9175C9.42302 57.9175 0.218018 61.5435 0.218018 66.0025C0.218018 70.472 9.42302 74.098 20.763 74.098C32.103 74.098 41.308 70.479 41.308 66.006C41.308 65.236 41.0175 64.494 40.503 63.7905L76.434 45.5415C77.729 45.6815 79.0695 45.769 80.4765 45.769C88.922 45.769 95.7715 43.074 95.7715 39.7385C95.7715 36.4345 88.922 33.7325 80.4765 33.7325H80.4835Z" fill="#3C3C3C"/>
</svg>
